<svg xmlns="http://www.w3.org/2000/svg" viewBox="0 0 24 24" fill="none">
  <defs>
    <linearGradient id="awsGradient" x1="0%" y1="0%" x2="100%" y2="100%">
      <stop offset="0%" style="stop-color:#FF9900;stop-opacity:1" />
      <stop offset="100%" style="stop-color:#FF8C00;stop-opacity:1" />
    </linearGradient>
  </defs>
  <!-- Cloud shape -->
  <path d="M6 12 C6 8 9 5 13 5 C16 5 18 7 19 10 C21 10 23 12 23 15 C23 18 20 21 17 21 L8 21 C5 21 3 19 3 16 C3 13 5 11 7 11 C6 10 6 9 6 8 C6 6 8 4 10 4 C11 4 12 4 13 5" fill="url(#awsGradient)" stroke="#FF9900" stroke-width="1"/>
  <!-- Arrow elements -->
  <path d="M8 8 L12 12 L8 16" stroke="white" stroke-width="2" fill="none" opacity="0.8"/>
  <path d="M16 8 L12 12 L16 16" stroke="white" stroke-width="2" fill="none" opacity="0.8"/>
  <!-- Cloud highlights -->
  <ellipse cx="10" cy="9" rx="2" ry="1" fill="white" opacity="0.3"/>
  <ellipse cx="14" cy="11" rx="1.5" ry="0.8" fill="white" opacity="0.3"/>
</svg> 