<svg xmlns="http://www.w3.org/2000/svg" viewBox="0 0 24 24" fill="none">
  <defs>
    <linearGradient id="azureGradient" x1="0%" y1="0%" x2="100%" y2="100%">
      <stop offset="0%" style="stop-color:#0089D6;stop-opacity:1" />
      <stop offset="100%" style="stop-color:#0078D4;stop-opacity:1" />
    </linearGradient>
  </defs>
  <!-- Cloud shape -->
  <path d="M4 14 C4 10 7 7 11 7 C14 7 16 9 17 12 C19 12 21 14 21 17 C21 20 18 23 15 23 L6 23 C3 23 1 21 1 18 C1 15 3 13 5 13 C4 12 4 11 4 10 C4 8 6 6 8 6 C9 6 10 6 11 7" fill="url(#azureGradient)" stroke="#0089D6" stroke-width="1"/>
  <!-- Lightning bolt -->
  <path d="M12 8 L10 14 L13 14 L11 20" stroke="white" stroke-width="2" fill="none" opacity="0.9"/>
  <!-- Cloud highlights -->
  <ellipse cx="8" cy="11" rx="2" ry="1" fill="white" opacity="0.3"/>
  <ellipse cx="12" cy="13" rx="1.5" ry="0.8" fill="white" opacity="0.3"/>
  <ellipse cx="16" cy="15" rx="1" ry="0.5" fill="white" opacity="0.3"/>
</svg> 