<svg xmlns="http://www.w3.org/2000/svg" viewBox="0 0 24 24" fill="none">
  <defs>
    <linearGradient id="dockerGradient" x1="0%" y1="0%" x2="100%" y2="100%">
      <stop offset="0%" style="stop-color:#2496ED;stop-opacity:1" />
      <stop offset="100%" style="stop-color:#1E88E5;stop-opacity:1" />
    </linearGradient>
  </defs>
  <!-- Whale body -->
  <path d="M3 12 C3 8 6 5 10 5 C12 5 14 6 15 8 C17 8 19 10 19 13 C19 16 16 19 13 19 L6 19 C4 19 2 17 2 14 C2 11 4 9 6 9 C5 8 5 7 5 6 C5 4 7 2 9 2 C10 2 11 2 12 3" fill="url(#dockerGradient)" stroke="#2496ED" stroke-width="1"/>
  <!-- Container stack -->
  <rect x="6" y="8" width="3" height="3" fill="white" opacity="0.8" rx="1"/>
  <rect x="11" y="8" width="3" height="3" fill="white" opacity="0.8" rx="1"/>
  <rect x="16" y="8" width="3" height="3" fill="white" opacity="0.8" rx="1"/>
  <rect x="6" y="13" width="3" height="3" fill="white" opacity="0.8" rx="1"/>
  <rect x="11" y="13" width="3" height="3" fill="white" opacity="0.8" rx="1"/>
  <!-- Whale eye -->
  <circle cx="8" cy="10" r="0.5" fill="white" opacity="0.9"/>
  <!-- Water drops -->
  <circle cx="18" cy="6" r="0.8" fill="white" opacity="0.4"/>
  <circle cx="20" cy="8" r="0.6" fill="white" opacity="0.4"/>
  <circle cx="19" cy="10" r="0.4" fill="white" opacity="0.4"/>
</svg> 